<svg width="32" height="32" viewBox="0 0 32 32" fill="none" xmlns="http://www.w3.org/2000/svg">
<g clip-path="url(#clip0_1366_2026)">
<path d="M16.0096 32C15.9118 32 15.814 31.9847 15.7199 31.9541L6.86639 29.0774C6.71789 29.0292 6.58439 28.9448 6.47751 28.8327C6.44889 28.8027 4.89126 23.9694 4.89126 23.9694L0.988139 21.2913L0.925889 21.2056C0.809514 21.0454 0.746826 20.8525 0.746826 20.6545V11.3454C0.746826 11.1475 0.809514 10.9546 0.925889 10.7944L0.990826 10.7051L4.70514 7.36306C4.70514 7.36306 6.67814 2.98381 6.86645 2.92263L15.7199 0.0459375C15.8141 0.0153125 15.9118 0 16.0096 0C16.0624 0 19.8912 3.20856 19.8912 3.20856C19.8912 3.20856 25.3094 2.98919 25.3359 3.00469C25.4473 3.06981 25.5448 3.15756 25.6215 3.26319L31.0933 10.7944C31.1311 10.8466 31.1633 10.9022 31.1895 10.9603C31.2143 11.0154 30.0082 15.4482 30.0082 15.4482C30.0082 15.4482 31.2476 20.8738 31.2339 20.9203C31.2038 21.0221 31.1565 21.1187 31.0933 21.2057L25.6215 28.7369C25.5633 28.817 25.4932 28.8869 25.4141 28.9443C25.3351 29.0018 20.0189 29.2035 20.0189 29.2035C20.0189 29.2035 16.1074 32 16.0096 32Z" fill="#FFD845"/>
<path d="M30.0082 15.4481C30.0082 15.4481 31.2144 11.0153 31.1895 10.9602C31.1634 10.9021 31.1312 10.8465 31.0933 10.7944L25.6215 3.26312C25.5449 3.15756 25.4474 3.06975 25.3359 3.00469C25.3094 2.98919 19.8912 3.20856 19.8912 3.20856C19.8912 3.20856 16.0624 0 16.0095 0C16.0032 0 15.9968 0.000625 15.9904 0.00075V31.9993C15.9967 31.9994 16.0031 32 16.0095 32C16.1073 32 20.0189 29.2034 20.0189 29.2034C20.0189 29.2034 25.335 29.0018 25.4141 28.9443C25.4932 28.8867 25.5634 28.8169 25.6215 28.7369L31.0932 21.2056C31.1564 21.1187 31.2037 21.0221 31.2339 20.9202C31.2477 20.8738 30.0082 15.4481 30.0082 15.4481Z" fill="#FFB454"/>
<path fill-rule="evenodd" clip-rule="evenodd" d="M22.72 25.2146L15.9905 27.3683V31.9999C16.0882 31.9999 16.186 31.9846 16.2802 31.954L25.1337 29.0774C25.2238 29.0481 25.3082 29.0052 25.3846 28.9512L22.72 25.2146Z" fill="#FF8659"/>
<path fill-rule="evenodd" clip-rule="evenodd" d="M25.3165 3.00519C25.2589 2.97156 25.1979 2.94344 25.1337 2.92263L16.2802 0.0459375C16.186 0.0153125 16.0882 0 15.9905 0V5.25131L22.8253 6.41713L25.3165 3.00519Z" fill="#FF8659"/>
<path fill-rule="evenodd" clip-rule="evenodd" d="M6.45887 28.8324L9.15574 25.1388L5.04274 19.4226L0.968994 21.2914L6.37849 28.7369C6.39099 28.7541 6.40431 28.7706 6.41787 28.7869C6.43112 28.8025 6.44481 28.8176 6.45887 28.8324Z" fill="#FFB454"/>
<path fill-rule="evenodd" clip-rule="evenodd" d="M31.2532 20.6544V11.3453C31.2532 11.2118 31.2241 11.0809 31.1698 10.9604L27.0378 12.2718L26.9713 19.4869L31.2141 20.92C31.2395 20.8343 31.2532 20.7449 31.2532 20.6544Z" fill="#FF8659"/>
<path fill-rule="evenodd" clip-rule="evenodd" d="M6.82818 2.92969C6.64799 2.99256 6.49093 3.1085 6.37855 3.26319L0.97168 10.7051L5.00955 12.0689L9.26099 6.34125L6.82818 2.92969Z" fill="#FFB454"/>
<path d="M15.9904 28.125C15.8927 28.125 15.7948 28.1097 15.7007 28.0791L9.12484 25.9425C8.93653 25.8813 8.77246 25.7621 8.65609 25.602L4.59203 20.0082C4.47565 19.848 4.41296 19.6551 4.41296 19.4571V12.5429C4.41296 12.345 4.47565 12.152 4.59203 11.9918L8.65609 6.39808C8.77246 6.23795 8.93653 6.1187 9.12484 6.05752L15.7007 3.92089C15.889 3.8597 16.0918 3.8597 16.28 3.92089L22.8558 6.05752C23.0442 6.1187 23.2082 6.23789 23.3246 6.39808L27.3887 11.9918C27.505 12.152 27.5677 12.3449 27.5677 12.5429V19.4571C27.5677 19.6551 27.505 19.848 27.3887 20.0082L23.3246 25.602C23.2082 25.7621 23.0442 25.8813 22.8558 25.9425L16.28 28.0791C16.186 28.1098 16.0882 28.125 15.9904 28.125Z" fill="#FFF36C"/>
<path d="M27.3889 11.9918L23.3248 6.39806C23.2084 6.23794 23.0444 6.11869 22.856 6.0575L16.2802 3.92094C16.186 3.89031 16.0882 3.875 15.9905 3.875V28.125C16.0882 28.125 16.186 28.1097 16.2802 28.0791L22.856 25.9425C23.0443 25.8813 23.2084 25.7621 23.3247 25.6019L27.3888 20.0082C27.5052 19.848 27.5679 19.6551 27.5679 19.4571V12.5429C27.5679 12.3449 27.5052 12.152 27.3889 11.9918Z" fill="#FFDE46"/>
<path d="M19.605 22.0624C19.4845 22.0624 19.3635 22.0392 19.2486 21.992L16.0117 20.661L12.7282 21.9936C12.4274 22.1157 12.085 22.0735 11.8228 21.8821C11.5607 21.6907 11.4162 21.3774 11.4408 21.0538L11.7065 17.5641L9.42441 14.8531C9.21541 14.6048 9.14966 14.2661 9.25066 13.9576C9.35166 13.6492 9.60503 13.4149 9.92041 13.3383L13.3214 12.5126L15.1945 9.50444C15.3661 9.22887 15.6702 9.06369 15.9925 9.0625C16.3171 9.06325 16.6182 9.23181 16.7885 9.50812L18.6248 12.4875L22.0645 13.3394C22.3795 13.4174 22.6318 13.6528 22.7313 13.9618C22.8309 14.2707 22.7637 14.6091 22.5535 14.8564L20.2875 17.5235L20.5402 21.0581C20.5633 21.3818 20.4174 21.6945 20.1544 21.8846C19.9921 22.002 19.7994 22.0624 19.605 22.0624Z" fill="#FFD845"/>
<path d="M22.7315 13.9618C22.6319 13.6529 22.3796 13.4174 22.0646 13.3394L18.6249 12.4875L16.7886 9.50813C16.6183 9.23181 16.3172 9.06325 15.9927 9.0625C15.9919 9.0625 15.9912 9.06256 15.9905 9.06256V20.6697L16.0118 20.6611L19.2487 21.9921C19.3636 22.0393 19.4847 22.0625 19.6052 22.0625C19.7995 22.0625 19.9922 22.0021 20.1546 21.8847C20.4176 21.6946 20.5635 21.3819 20.5404 21.0581L20.2877 17.5236L22.5538 14.8564C22.7638 14.6091 22.8311 14.2706 22.7315 13.9618Z" fill="#FFB454"/>
</g>
<defs>
<clipPath id="clip0_1366_2026">
<rect width="32" height="32" fill="white"/>
</clipPath>
</defs>
</svg>
